<?xml version="1.0" encoding="utf-8"?>
<!-- Generator: Adobe Illustrator 18.1.1, SVG Export Plug-In . SVG Version: 6.00 Build 0)  -->
<svg version="1.1" id="Layer_1" xmlns="http://www.w3.org/2000/svg" xmlns:xlink="http://www.w3.org/1999/xlink" x="0px" y="0px"
	 viewBox="0 0 468 56" enable-background="new 0 0 468 56" xml:space="preserve">
<g>
	<path fill="#FFFFFF" d="M0,31.5V12.3h5.2v19c0,3,0.6,5.2,1.8,6.7c1.2,1.5,2.9,2.2,5.3,2.2c2.8,0,5-0.9,6.7-2.7
		c1.6-1.8,2.4-4.2,2.4-7.3V12.3h5.2V44h-5.2v-4.9c-1.3,1.9-2.7,3.3-4.4,4.3c-1.7,0.9-3.6,1.4-5.8,1.4c-3.6,0-6.4-1.1-8.3-3.4
		C0.9,39.1,0,35.8,0,31.5z M52.8,13.3v4.9c-1.5-0.8-3-1.3-4.6-1.7c-1.6-0.4-3.2-0.6-4.9-0.6c-2.6,0-4.5,0.4-5.8,1.2
		c-1.3,0.8-1.9,2-1.9,3.6c0,1.2,0.5,2.2,1.4,2.8c0.9,0.7,2.8,1.3,5.6,2l1.8,0.4c3.7,0.8,6.3,1.9,7.9,3.3s2.3,3.5,2.3,6
		c0,2.9-1.2,5.3-3.5,7c-2.3,1.7-5.5,2.6-9.6,2.6c-1.7,0-3.5-0.2-5.3-0.5c-1.8-0.3-3.8-0.8-5.8-1.5v-5.4c1.9,1,3.8,1.7,5.7,2.2
		c1.9,0.5,3.7,0.7,5.5,0.7c2.5,0,4.3-0.4,5.7-1.3c1.3-0.8,2-2,2-3.5c0-1.4-0.5-2.5-1.4-3.2c-1-0.8-3-1.5-6.3-2.2l-1.8-0.4
		c-3.2-0.7-5.6-1.7-7-3.1c-1.4-1.4-2.2-3.3-2.2-5.8c0-3,1.1-5.3,3.2-6.9c2.1-1.6,5.1-2.4,9-2.4c1.9,0,3.7,0.1,5.4,0.4
		C49.8,12.3,51.4,12.7,52.8,13.3z M102.1,17.1V0h5.2v44h-5.2v-4.7c-1.1,1.9-2.5,3.3-4.1,4.2c-1.7,0.9-3.7,1.4-6,1.4
		c-3.8,0-6.9-1.5-9.4-4.6c-2.4-3.1-3.6-7.1-3.6-12c0-5,1.2-9,3.6-12c2.4-3.1,5.5-4.6,9.4-4.6c2.3,0,4.3,0.5,6,1.4
		C99.6,13.8,101,15.2,102.1,17.1z M84.3,28.2c0,3.8,0.8,6.8,2.4,9c1.6,2.2,3.7,3.3,6.5,3.3c2.8,0,4.9-1.1,6.5-3.3
		c1.6-2.2,2.4-5.2,2.4-9c0-3.8-0.8-6.8-2.4-9c-1.6-2.2-3.8-3.3-6.5-3.3c-2.8,0-4.9,1.1-6.5,3.3C85.1,21.3,84.3,24.3,84.3,28.2z
		 M112.2,0h5.2v6.6h-5.2V0z M112.2,12.3h5.2V44h-5.2V12.3z M149.7,40c0,5.4-1.2,9.4-3.6,12c-2.4,2.6-6.1,3.9-11,3.9
		c-1.8,0-3.6-0.1-5.2-0.4c-1.6-0.3-3.2-0.7-4.7-1.3v-5.1c1.5,0.8,3,1.4,4.5,1.8c1.5,0.4,3,0.6,4.6,0.6c3.4,0,6-0.9,7.7-2.7
		c1.7-1.8,2.5-4.5,2.5-8.1v-2.6c-1.1,1.9-2.5,3.3-4.1,4.2c-1.7,0.9-3.7,1.4-6,1.4c-3.9,0-7-1.5-9.4-4.4c-2.4-3-3.6-6.9-3.6-11.8
		c0-4.9,1.2-8.8,3.6-11.8c2.4-3,5.5-4.4,9.4-4.4c2.3,0,4.3,0.5,6,1.4c1.7,0.9,3.1,2.3,4.1,4.2v-4.8h5.2V40z M144.5,27.8
		c0-3.8-0.8-6.7-2.3-8.8c-1.6-2.1-3.7-3.1-6.6-3.1c-2.8,0-5,1-6.5,3.1c-1.6,2.1-2.3,5-2.3,8.8c0,3.7,0.8,6.7,2.3,8.7
		c1.6,2.1,3.7,3.1,6.5,3.1c2.8,0,5-1,6.6-3.1C143.8,34.4,144.5,31.5,144.5,27.8z M154.7,0h5.2v6.6h-5.2V0z M154.7,12.3h5.2V44h-5.2
		V12.3z M173.6,3.3v9h10.7v4h-10.7v17.2c0,2.6,0.4,4.2,1.1,5c0.7,0.7,2.1,1.1,4.3,1.1h5.3V44H179c-4,0-6.8-0.7-8.3-2.2
		c-1.5-1.5-2.3-4.2-2.3-8.2V16.4h-3.8v-4h3.8v-9H173.6z M213.6,25.9V44h-5.2v-4.8c-1.2,1.9-2.7,3.3-4.4,4.3
		c-1.8,0.9-3.9,1.4-6.5,1.4c-3.2,0-5.8-0.9-7.7-2.7c-1.9-1.8-2.9-4.3-2.9-7.3c0-3.6,1.2-6.2,3.6-8.1c2.4-1.8,5.9-2.7,10.7-2.7h7.3
		v-0.5c0-2.4-0.8-4.2-2.4-5.6c-1.6-1.3-3.8-2-6.6-2c-1.8,0-3.6,0.2-5.3,0.6c-1.7,0.4-3.4,1.1-5,1.9v-4.8c1.9-0.7,3.8-1.3,5.5-1.7
		c1.8-0.4,3.5-0.6,5.2-0.6c4.6,0,8,1.2,10.3,3.6C212.5,17.5,213.6,21.1,213.6,25.9z M203.3,28.1c-4.2,0-7.1,0.5-8.7,1.4
		c-1.6,1-2.4,2.6-2.4,4.9c0,1.8,0.6,3.3,1.8,4.4c1.2,1.1,2.9,1.6,5,1.6c2.9,0,5.2-1,6.9-3.1c1.7-2,2.6-4.8,2.6-8.2v-1.2H203.3z
		 M218.6,0h5.2v44h-5.2V0z M258.1,39.2V56h-5.2V12.3h5.2v4.8c1.1-1.9,2.5-3.3,4.1-4.2c1.7-0.9,3.7-1.4,6-1.4c3.8,0,7,1.5,9.4,4.6
		c2.4,3.1,3.6,7.1,3.6,12c0,5-1.2,9-3.6,12c-2.4,3.1-5.5,4.6-9.4,4.6c-2.3,0-4.3-0.5-6-1.4C260.6,42.5,259.2,41.1,258.1,39.2z
		 M275.8,28.2c0-3.8-0.8-6.8-2.4-9c-1.6-2.2-3.7-3.3-6.5-3.3c-2.8,0-4.9,1.1-6.5,3.3c-1.6,2.2-2.4,5.2-2.4,9c0,3.8,0.8,6.8,2.4,9
		c1.6,2.2,3.7,3.3,6.5,3.3c2.8,0,4.9-1.1,6.5-3.3C275,35,275.8,32,275.8,28.2z M311.2,25.9V44H306v-4.8c-1.2,1.9-2.7,3.3-4.4,4.3
		c-1.8,0.9-3.9,1.4-6.5,1.4c-3.2,0-5.8-0.9-7.7-2.7c-1.9-1.8-2.9-4.3-2.9-7.3c0-3.6,1.2-6.2,3.6-8.1c2.4-1.8,5.9-2.7,10.7-2.7h7.3
		v-0.5c0-2.4-0.8-4.2-2.4-5.6c-1.6-1.3-3.8-2-6.6-2c-1.8,0-3.6,0.2-5.3,0.6c-1.7,0.4-3.4,1.1-5,1.9v-4.8c1.9-0.7,3.8-1.3,5.5-1.7
		c1.8-0.4,3.5-0.6,5.2-0.6c4.6,0,8,1.2,10.3,3.6C310,17.5,311.2,21.1,311.2,25.9z M300.8,28.1c-4.2,0-7.1,0.5-8.7,1.4
		c-1.6,1-2.4,2.6-2.4,4.9c0,1.8,0.6,3.3,1.8,4.4c1.2,1.1,2.9,1.6,5,1.6c2.9,0,5.2-1,6.9-3.1c1.7-2,2.6-4.8,2.6-8.2v-1.2H300.8z
		 M334.5,17.2c-0.6-0.3-1.2-0.6-1.9-0.7c-0.7-0.2-1.4-0.2-2.3-0.2c-2.9,0-5.2,1-6.8,2.9c-1.6,1.9-2.4,4.7-2.4,8.2V44h-5.2V12.3h5.2
		v4.9c1.1-1.9,2.5-3.3,4.3-4.3c1.8-0.9,3.9-1.4,6.4-1.4c0.4,0,0.8,0,1.2,0.1c0.4,0,0.9,0.1,1.4,0.2L334.5,17.2z M345.1,3.3v9h10.7v4
		h-10.7v17.2c0,2.6,0.4,4.2,1.1,5c0.7,0.7,2.1,1.1,4.3,1.1h5.3V44h-5.3c-4,0-6.8-0.7-8.3-2.2c-1.5-1.5-2.3-4.2-2.3-8.2V16.4H336v-4
		h3.8v-9H345.1z M386.7,24.9V44h-5.2V25c0-3-0.6-5.2-1.8-6.7c-1.2-1.5-2.9-2.2-5.3-2.2c-2.8,0-5,0.9-6.6,2.7
		c-1.6,1.8-2.4,4.2-2.4,7.3V44h-5.2V12.3h5.2v4.9c1.2-1.9,2.7-3.3,4.4-4.3c1.7-0.9,3.6-1.4,5.8-1.4c3.6,0,6.4,1.1,8.3,3.4
		C385.7,17.2,386.7,20.5,386.7,24.9z M419.5,26.8v2.5h-23.9c0.2,3.6,1.3,6.3,3.2,8.2c1.9,1.9,4.6,2.8,8.1,2.8c2,0,3.9-0.2,5.8-0.7
		c1.9-0.5,3.7-1.2,5.6-2.2v4.9c-1.9,0.8-3.8,1.4-5.7,1.8c-2,0.4-4,0.6-6,0.6c-5.1,0-9.1-1.5-12-4.4c-3-2.9-4.4-6.9-4.4-11.9
		c0-5.2,1.4-9.3,4.2-12.3c2.8-3,6.6-4.6,11.3-4.6c4.3,0,7.6,1.4,10.1,4.1C418.3,18.4,419.5,22.1,419.5,26.8z M414.3,25.3
		c0-2.8-0.8-5.1-2.4-6.8c-1.6-1.7-3.6-2.5-6.2-2.5c-2.9,0-5.2,0.8-7,2.5c-1.7,1.6-2.7,3.9-3,6.9L414.3,25.3z M441.8,17.2
		c-0.6-0.3-1.2-0.6-1.9-0.7c-0.7-0.2-1.4-0.2-2.3-0.2c-2.9,0-5.2,1-6.8,2.9c-1.6,1.9-2.4,4.7-2.4,8.2V44h-5.2V12.3h5.2v4.9
		c1.1-1.9,2.5-3.3,4.3-4.3c1.8-0.9,3.9-1.4,6.4-1.4c0.4,0,0.8,0,1.2,0.1c0.4,0,0.9,0.1,1.4,0.2L441.8,17.2z M466.3,13.3v4.9
		c-1.5-0.8-3-1.3-4.6-1.7c-1.6-0.4-3.2-0.6-4.9-0.6c-2.6,0-4.5,0.4-5.8,1.2c-1.3,0.8-1.9,2-1.9,3.6c0,1.2,0.5,2.2,1.4,2.8
		c0.9,0.7,2.8,1.3,5.6,2l1.8,0.4c3.7,0.8,6.3,1.9,7.9,3.3c1.6,1.4,2.3,3.5,2.3,6c0,2.9-1.2,5.3-3.5,7c-2.3,1.7-5.5,2.6-9.6,2.6
		c-1.7,0-3.5-0.2-5.3-0.5c-1.8-0.3-3.8-0.8-5.8-1.5v-5.4c1.9,1,3.8,1.7,5.7,2.2c1.9,0.5,3.7,0.7,5.5,0.7c2.5,0,4.3-0.4,5.7-1.3
		c1.3-0.8,2-2,2-3.5c0-1.4-0.5-2.5-1.4-3.2c-1-0.8-3-1.5-6.3-2.2l-1.8-0.4c-3.2-0.7-5.6-1.7-7-3.1c-1.4-1.4-2.2-3.3-2.2-5.8
		c0-3,1.1-5.3,3.2-6.9c2.1-1.6,5.1-2.4,9-2.4c1.9,0,3.7,0.1,5.4,0.4C463.3,12.3,464.9,12.7,466.3,13.3z"/>
</g>
</svg>
